<svg width="233" height="233" viewBox="0 0 233 233" fill="none" xmlns="http://www.w3.org/2000/svg">
<circle cx="116.5" cy="116.5" r="116.5" fill="#3672E5"/>
<path d="M40.328 161C39.56 161 38.8773 160.744 38.28 160.232C37.768 159.635 37.512 158.952 37.512 158.184C37.512 157.843 37.5973 157.544 37.768 157.288L66.952 75.368C67.208 74.4293 67.7627 73.5333 68.616 72.68C69.5547 71.8267 70.792 71.4 72.328 71.4H95.752C97.3733 71.4 98.6107 71.8267 99.464 72.68C100.317 73.5333 100.872 74.4293 101.128 75.368L130.44 157.288C130.525 157.544 130.568 157.843 130.568 158.184C130.568 158.952 130.269 159.635 129.672 160.232C129.16 160.744 128.52 161 127.752 161H108.04C106.589 161 105.523 160.659 104.84 159.976C104.157 159.293 103.688 158.653 103.432 158.056L99.464 147.304H68.616L64.648 158.056C64.392 158.653 63.9227 159.293 63.24 159.976C62.6427 160.659 61.576 161 60.04 161H40.328ZM74.504 125.672H93.576L83.976 96.872L74.504 125.672Z" fill="white"/>
<path d="M185.936 93.928V94.312C185.936 95.08 185.68 95.8053 185.168 96.488H202.832C202.235 97.3413 201.339 97.768 200.144 97.768H163.536V98.408H153.808V100.328H149.456V102.888H153.808V104.808H152.656V106.728H152.144V107.24H186.192C187.045 107.24 187.771 107.496 188.368 108.008H188.624C189.051 108.349 189.392 108.776 189.648 109.288H188.88C189.136 109.629 189.264 110.099 189.264 110.696V111.848H188.752V112.488H192.08V115.048H189.136V116.328H189.904V118.248H190.288V118.888H191.44V120.808H189.52V121.448H182.992V124.008H181.456V125.928H191.184V128.488H187.6V130.024C187.6 130.451 187.557 130.792 187.472 131.048H187.216C186.875 131.987 186.363 132.627 185.68 132.968H183.12C182.693 133.309 182.096 133.48 181.328 133.48H147.28V134.888H151.12V136.168H156.88V138.088H144.848V139.368H155.856V141.288H147.536V141.928H153.936V144.488H150.352V147.048H152.016V147.688H151.248V150.248H153.296V150.888H152.4V151.528H150.608V152.808H152.4V154.088H150.608V156.008H156.624V156.648H160.592V157.544C160.592 157.629 160.549 157.715 160.464 157.8C160.464 157.8 160.464 157.843 160.464 157.928H171.216C171.216 158.184 171.173 158.397 171.088 158.568H153.168C152.997 159.336 152.528 159.976 151.76 160.488H160.976C160.549 160.829 159.952 161 159.184 161H134.736C133.968 161 133.371 160.829 132.944 160.488H123.6C123.003 160.061 122.533 159.421 122.192 158.568H139.984C139.984 158.312 139.941 158.099 139.856 157.928H129.232V156.648H125.264V156.008H119.248V154.088H121.04V152.808H119.248V151.528H121.04V150.888H121.936V150.248H119.888V147.688H120.656V147.048H118.992V144.488H122.576V141.928H116.176V141.288H124.496V139.368H113.488V138.088H125.52V136.168H119.76V134.888H115.92V132.968H118.48V131.048H118.736V128.488H122.32V125.928H112.592V124.008H114.128V121.448H120.656V120.808H122.576V118.888H121.424V118.248H121.04V116.328H120.272V115.048H123.216V112.488H119.888V111.848H120.4V109.288H121.04V108.008H120.784V106.728H121.296V104.808H122.448V102.888H118.096V100.328H122.448V98.408H132.176V96.488H114.512V93.928H133.968V92.008H115.152V90.728H115.664V89.448H126.544V86.888H121.808V84.328H123.984V81.768H120.656V79.208H121.04V77.288H119.888V75.368H120.528V74.856C120.528 74.5147 120.571 74.2587 120.656 74.088H115.536C115.621 73.6613 115.749 73.32 115.92 73.064C116.176 72.7227 116.432 72.424 116.688 72.168H115.664C116.347 71.656 117.072 71.4 117.84 71.4H182.352C183.205 71.4 183.931 71.656 184.528 72.168H185.552C186.149 72.5947 186.576 73.2347 186.832 74.088H191.824C191.909 74.2587 191.952 74.5147 191.952 74.856V75.368H191.312V77.288H192.464V79.208H192.08V81.768H195.408V84.328H193.232V86.888H197.968V89.448H187.088V90.728H186.576V92.008H205.392V93.928H185.936Z" fill="white"/>
</svg>
